<svg width="27" height="21" viewBox="0 0 27 21" fill="none" xmlns="http://www.w3.org/2000/svg">
<path d="M10.9767 13.6477C9.13726 16.138 7.47263 19.285 9.17213 20.1348C10.8716 20.9845 11.81 16.9086 14.1318 16.5222C16.4535 16.1357 19.1716 19.1478 20.2374 19.718C21.3032 20.2882 22.4391 21.0688 23.1955 18.109C23.9519 15.1491 25.7523 5.43709 26.2262 2.90981C26.7001 0.382537 24.7729 -0.31311 22.5612 0.318826C20.3496 0.950762 3.48148 6.85354 1.96471 7.86456C0.447944 8.87557 0.350726 9.38108 1.36191 9.88658C2.3731 10.3921 5.39968 12.3835 7.59944 11.5966C10.9663 10.3921 18.9456 5.02217 19.8299 5.52127C20.6936 6.00876 12.4081 11.7097 10.9767 13.6477Z" fill="#5992E8"/>
</svg>
