<svg width="143" height="112" viewBox="0 0 143 112" fill="none" xmlns="http://www.w3.org/2000/svg">
<path d="M57.8025 75.0581C47.6137 88.8522 38.393 106.284 47.8069 110.991C57.2208 115.698 62.4188 93.1209 75.2795 90.9802C88.1401 88.8396 103.196 105.524 109.1 108.683C115.004 111.841 121.295 116.165 125.485 99.7698C129.675 83.3745 139.648 29.5776 142.273 15.5785C144.898 1.57938 134.223 -2.27395 121.972 1.22647C109.721 4.7269 16.2852 37.4236 7.88348 43.0238C-0.518205 48.6241 -1.05671 51.4242 4.54446 54.2243C10.1456 57.0244 26.9105 68.0554 39.0954 63.6962C57.7449 57.0244 101.944 27.2793 106.842 30.0439C111.627 32.7442 65.7318 64.323 57.8025 75.0581Z" fill="#5992E8"/>
</svg>
