<svg width="45" height="36" viewBox="0 0 45 36" fill="none" xmlns="http://www.w3.org/2000/svg">
<path d="M17.773 23.6337C14.6033 27.9249 11.7348 33.3478 14.6634 34.8121C17.592 36.2764 19.2091 29.2528 23.2099 28.5869C27.2108 27.9209 31.8946 33.1114 33.7312 34.094C35.5678 35.0766 37.525 36.4217 38.8285 31.3212C40.1319 26.2208 43.2344 9.48502 44.0511 5.13001C44.8677 0.775008 41.5466 -0.423734 37.7356 0.66522C33.9245 1.75417 4.85729 11.9259 2.24359 13.668C-0.370105 15.4102 -0.537631 16.2813 1.20485 17.1524C2.94733 18.0235 8.16273 21.4552 11.9534 20.0991C17.7551 18.0235 31.5051 8.77003 33.0289 9.63009C34.5172 10.4701 20.2397 20.294 17.773 23.6337Z" fill="#5992E8"/>
</svg>
