<svg xmlns="http://www.w3.org/2000/svg" width="0" height="0">
    <symbol id="social-vk" viewBox="0 0 56 56">
        <path d="M37.1737 30.6265C39.1957 32.3914 39.616 33.0214 39.6847 33.1289C40.5226 34.4352 38.7555 34.5943 38.7555 34.5943H35.0315C35.0315 34.5943 34.1249 34.6041 33.3503 34.0993C32.0876 33.2862 30.7652 31.7098 29.836 31.9835C29.0559 32.2127 29.0631 33.2489 29.0631 34.1349C29.0631 34.4521 28.7856 34.5943 28.1593 34.5943C27.5329 34.5943 27.2725 34.5943 26.995 34.5943C24.955 34.5943 22.7413 33.9189 20.5331 31.6502C17.4093 28.4431 14.6696 21.9827 14.6696 21.9827C14.6696 21.9827 14.5078 21.6575 14.6841 21.4593C14.8838 21.2371 15.4271 21.2656 15.4271 21.2656L19.0381 21.2647C19.0381 21.2647 19.378 21.3278 19.622 21.4966C19.8236 21.6353 19.9357 21.9001 19.9357 21.9001C19.9357 21.9001 20.5422 23.8693 21.315 25.1249C22.8245 27.5758 23.5268 27.638 24.0393 27.3741C24.7877 26.992 24.5437 24.3865 24.5437 24.3865C24.5437 24.3865 24.5771 23.2677 24.1867 22.7692C23.8857 22.3835 23.3099 22.1782 23.0586 22.1462C22.8552 22.1205 23.1951 21.7703 23.6281 21.5704C24.2065 21.3171 24.9938 21.2523 26.3515 21.2647C27.4081 21.2745 27.7127 21.3367 28.1249 21.43C29.3714 21.7126 29.0631 22.4581 29.0631 25.0761C29.0631 25.9149 28.9456 27.0942 29.5892 27.4852C29.8667 27.654 30.8176 27.8602 32.5097 25.1587C33.3132 23.8773 33.9523 21.7517 33.9523 21.7517C33.9523 21.7517 34.0842 21.518 34.2894 21.4024C34.4991 21.2842 34.4928 21.2869 34.7802 21.2869C35.0677 21.2869 37.9502 21.2647 38.5829 21.2647C39.2147 21.2647 39.8077 21.2576 39.9098 21.6219C40.0562 22.1453 39.4434 23.9386 37.8905 25.8847C35.3388 29.0785 35.0559 28.7799 37.1737 30.6265Z"/>
    </symbol>

    <symbol id="social-instagram" viewBox="0 0 56 56" xmlns="http://www.w3.org/2000/svg">
        <path fill-rule="evenodd" d="M18.2036 23.6447C18.2036 20.6381 20.6417 18.2 23.6482 18.2H32.3598C35.3663 18.2 37.8044 20.6381 37.8044 23.6447V32.3562C37.8044 35.3628 35.3663 37.8009 32.3598 37.8009H23.6482C20.6417 37.8009 18.2036 35.3628 18.2036 32.3562V23.6447ZM35.6175 21.4667C35.6175 20.8656 35.1297 20.3778 34.5286 20.3778C33.9275 20.3778 33.4396 20.8656 33.4396 21.4667C33.4396 22.0678 33.9275 22.5556 34.5286 22.5556C35.1297 22.5556 35.6175 22.0678 35.6175 21.4667ZM28.0072 22.5558C31.0137 22.5558 33.4518 24.9939 33.4518 28.0005C33.4518 31.0071 31.0137 33.4452 28.0072 33.4452C25.0006 33.4452 22.5625 31.0071 22.5625 28.0005C22.5625 24.9939 25.0006 22.5558 28.0072 22.5558ZM24.735 27.9993C24.735 26.1951 26.1976 24.7325 28.0019 24.7325C29.8061 24.7325 31.2687 26.1951 31.2687 27.9993C31.2687 29.8035 29.8061 31.2661 28.0019 31.2661C26.1976 31.2661 24.735 29.8035 24.735 27.9993Z"/>
    </symbol>

    <symbol id="social-tik-tok" viewBox="0 0 56 56" xmlns="http://www.w3.org/2000/svg">
        <path d="M37.0541 21.9328C35.8245 21.9328 34.69 21.5254 33.7789 20.8382C32.734 20.0505 31.9833 18.8949 31.7182 17.563C31.6525 17.2339 31.6172 16.8943 31.6138 16.5463H28.1012V26.1443L28.097 31.4016C28.097 32.8071 27.1818 33.9989 25.913 34.418C25.5448 34.5396 25.1471 34.5973 24.733 34.5746C24.2045 34.5455 23.7092 34.386 23.2787 34.1285C22.3626 33.5806 21.7414 32.5866 21.7246 31.4496C21.6981 29.6725 23.1348 28.2236 24.9106 28.2236C25.2611 28.2236 25.5978 28.2808 25.913 28.3848V25.7614V24.8183C25.5805 24.7691 25.2422 24.7434 24.9001 24.7434C22.9563 24.7434 21.1384 25.5514 19.8389 27.007C18.8567 28.107 18.2676 29.5104 18.1767 30.982C18.0576 32.9153 18.765 34.753 20.1369 36.1089C20.3384 36.3079 20.5501 36.4926 20.7714 36.6631C21.9476 37.5682 23.3856 38.0589 24.9001 38.0589C25.2422 38.0589 25.5805 38.0337 25.913 37.9844C27.3278 37.7749 28.6332 37.1272 29.6633 36.1089C30.9291 34.8578 31.6285 33.1968 31.6361 31.4289L31.618 23.5782C32.2219 24.044 32.8821 24.4295 33.5908 24.7287C34.6929 25.1937 35.8615 25.4294 37.0642 25.4289V22.8784V21.9319C37.0651 21.9328 37.055 21.9328 37.0541 21.9328Z"/>
    </symbol>

    <symbol id="social-twitter" viewBox="0 0 56 56" xmlns="http://www.w3.org/2000/svg">
        <path d="M39.3029 21.2415C38.4458 21.6216 37.5239 21.8786 36.557 21.9934C37.5442 21.402 38.3018 20.4661 38.6594 19.3492C37.7357 19.8971 36.7121 20.2946 35.6237 20.5089C34.7517 19.5802 33.5092 18.9998 32.1334 18.9998C29.4938 18.9998 27.353 21.1406 27.353 23.7803C27.353 24.1549 27.3954 24.5197 27.4774 24.8698C23.5044 24.6705 19.9817 22.7674 17.6238 19.8743C17.2123 20.5802 16.9763 21.402 16.9763 22.2779C16.9763 23.936 17.8209 25.3999 19.1029 26.2569C18.3197 26.2323 17.582 26.0174 16.9378 25.6584C16.9375 25.6787 16.9375 25.699 16.9375 25.719C16.9375 28.0352 18.586 29.9672 20.7725 30.406C20.3717 30.5158 19.9486 30.5739 19.5133 30.5739C19.2045 30.5739 18.9054 30.5444 18.6138 30.4887C19.222 32.3875 20.9871 33.7697 23.0795 33.8086C21.4431 35.091 19.3821 35.855 17.1418 35.855C16.7567 35.855 16.3753 35.8325 16.002 35.7879C18.1165 37.1448 20.6299 37.9359 23.3294 37.9359C32.1224 37.9359 36.931 30.6517 36.931 24.3339C36.931 24.1268 36.9264 23.9204 36.9171 23.7157C37.8519 23.0419 38.6622 22.2002 39.3029 21.2415Z" />
    </symbol>

    <symbol id="social-yandex-dzen" viewBox="0 0 56 56" xmlns="http://www.w3.org/2000/svg">
        <path d="M46.0009 28.1982V27.9993V27.8011C38.0305 27.5599 34.3857 27.3611 31.4787 24.5218C28.6402 21.6154 28.4405 17.9707 28.2 9.99988H28.001H27.8021C27.5616 17.9707 27.362 21.6154 24.5234 24.5218C21.6164 27.3611 17.9716 27.5599 10.0013 27.8011V27.9993V28.1982C17.9716 28.4394 21.6164 28.6383 24.5234 31.4769C27.362 34.384 27.5616 38.0287 27.8021 45.9995H28.001H28.2C28.4405 38.0287 28.6402 34.384 31.4787 31.4769C34.3857 28.6383 38.0305 28.4394 46.0009 28.1982Z"/>
    </symbol>

    <symbol id="social-facebook" viewBox="0 0 56 56" xmlns="http://www.w3.org/2000/svg">
        <path d="M32.5573 27.9766H29.2946V39.9996H24.3514V27.9766H22.0004V23.7512H24.3514V21.017C24.3514 19.0617 25.2748 15.9998 29.3386 15.9998L33.0002 16.0153V20.1167H30.3435C29.9077 20.1167 29.2949 20.3357 29.2949 21.2684V23.7552H32.9892L32.5573 27.9766Z"/>
    </symbol>

    <symbol id="message" viewBox="0 0 18 18" xmlns="http://www.w3.org/2000/svg">
        <path fill-rule="evenodd" d="M16 8.09459C16 11.4605 12.8658 14.1892 9 14.1892C8.3067 14.1901 7.61626 14.1005 6.94637 13.9228C6.43537 14.1805 5.262 14.675 3.288 14.9971C3.113 15.025 2.98 14.8439 3.04913 14.682C3.35888 13.9541 3.63887 12.9842 3.72287 12.0996C2.651 11.0287 2 9.62694 2 8.09459C2 4.72863 5.13425 2 9 2C12.8658 2 16 4.72863 16 8.09459ZM6.375 8.09459C6.375 8.3255 6.28281 8.54695 6.11872 8.71023C5.95462 8.87351 5.73206 8.96524 5.5 8.96524C5.26794 8.96524 5.04538 8.87351 4.88128 8.71023C4.71719 8.54695 4.625 8.3255 4.625 8.09459C4.625 7.86367 4.71719 7.64222 4.88128 7.47894C5.04538 7.31566 5.26794 7.22393 5.5 7.22393C5.73206 7.22393 5.95462 7.31566 6.11872 7.47894C6.28281 7.64222 6.375 7.86367 6.375 8.09459V8.09459ZM9.875 8.09459C9.875 8.3255 9.78281 8.54695 9.61872 8.71023C9.45462 8.87351 9.23206 8.96524 9 8.96524C8.76794 8.96524 8.54538 8.87351 8.38128 8.71023C8.21719 8.54695 8.125 8.3255 8.125 8.09459C8.125 7.86367 8.21719 7.64222 8.38128 7.47894C8.54538 7.31566 8.76794 7.22393 9 7.22393C9.23206 7.22393 9.45462 7.31566 9.61872 7.47894C9.78281 7.64222 9.875 7.86367 9.875 8.09459ZM12.5 8.96524C12.7321 8.96524 12.9546 8.87351 13.1187 8.71023C13.2828 8.54695 13.375 8.3255 13.375 8.09459C13.375 7.86367 13.2828 7.64222 13.1187 7.47894C12.9546 7.31566 12.7321 7.22393 12.5 7.22393C12.2679 7.22393 12.0454 7.31566 11.8813 7.47894C11.7172 7.64222 11.625 7.86367 11.625 8.09459C11.625 8.3255 11.7172 8.54695 11.8813 8.71023C12.0454 8.87351 12.2679 8.96524 12.5 8.96524V8.96524Z"/>
    </symbol>

    <symbol id="phone" viewBox="0 0 18 18" xmlns="http://www.w3.org/2000/svg">
        <path d="M14.394 4.05413L12.7138 2.37549C12.5953 2.25644 12.4544 2.16199 12.2993 2.09755C12.1441 2.03311 11.9778 1.99996 11.8098 2C11.4675 2 11.1456 2.1341 10.9042 2.37549L9.09625 4.1835C8.97721 4.30202 8.88276 4.4429 8.81832 4.59803C8.75388 4.75317 8.72073 4.91951 8.72077 5.0875C8.72077 5.42985 8.85487 5.7517 9.09625 5.99308L10.4183 7.31517C10.1089 7.99729 9.6786 8.61783 9.14832 9.14684C8.61936 9.67842 7.99889 10.1103 7.31667 10.4216L5.9946 9.09951C5.87608 8.98047 5.7352 8.88602 5.58007 8.82158C5.42493 8.75714 5.25859 8.72399 5.09061 8.72403C4.74826 8.72403 4.42642 8.85813 4.18504 9.09951L2.37548 10.9059C2.25629 11.0247 2.16176 11.1658 2.09732 11.3212C2.03288 11.4767 1.9998 11.6433 2 11.8115C2 12.1539 2.1341 12.4757 2.37548 12.7171L4.05252 14.3942C4.43746 14.7807 4.96913 15 5.515 15C5.63016 15 5.7406 14.9905 5.84946 14.9716C7.97612 14.6214 10.0854 13.4902 11.7877 11.7894C13.4884 10.0903 14.618 7.98252 14.973 5.84951C15.0803 5.19794 14.8641 4.52743 14.394 4.05413V4.05413Z"/>
    </symbol>

    <symbol id="star" viewBox="0 0 18 18" xmlns="http://www.w3.org/2000/svg">
        <path d="M12.0016 5.2446C11.679 5.25433 11.3715 5.10776 11.176 4.85103L9.12699 2.16124C8.59697 1.46546 7.50427 1.64758 7.22856 2.47764L6.16312 5.6853C6.06134 5.99172 5.81787 6.23015 5.50938 6.32549L2.23044 7.33889C1.34773 7.6117 1.18511 8.79097 1.96103 9.29252L4.64919 11.0301C4.93912 11.2175 5.11188 11.5412 5.1062 11.8864L5.05401 15.0566C5.0393 15.9505 6.0491 16.4798 6.77589 15.9591L9.6575 13.8946C9.90942 13.7141 10.2308 13.6606 10.5276 13.7497L13.9218 14.7692C14.7781 15.0264 15.562 14.1985 15.2584 13.3575L14.182 10.3754C14.0648 10.0507 14.1233 9.68847 14.3369 9.41724L16.3172 6.90223C16.8887 6.17637 16.3529 5.11343 15.4294 5.14127L12.0016 5.2446Z"/>
    </symbol>

    <symbol id="envelop" viewBox="0 0 18 18" xmlns="http://www.w3.org/2000/svg">
        <path d="M16 5.85408V11.8846C16 12.4456 15.7695 12.9837 15.3593 13.3804C14.9491 13.7771 14.3927 14 13.8125 14H4.1875C3.60734 14 3.05094 13.7771 2.6407 13.3804C2.23047 12.9837 2 12.4456 2 11.8846V5.85408L8.77775 9.71085C8.84508 9.74925 8.92183 9.7695 9 9.7695C9.07817 9.7695 9.15492 9.74925 9.22225 9.71085L16 5.85408ZM13.8125 3C14.3508 2.99992 14.8701 3.19174 15.2713 3.53878C15.6725 3.88582 15.9272 4.3637 15.9869 4.881L9 8.85538L2.01313 4.881C2.07276 4.3637 2.32753 3.88582 2.7287 3.53878C3.12986 3.19174 3.64925 2.99992 4.1875 3H13.8125Z"/>
    </symbol>

    <symbol id="chevron-right" viewBox="0 0 24 24" xmlns="http://www.w3.org/2000/svg">
        <path d="M9.29 6.70999C8.9 7.09999 8.9 7.72999 9.29 8.11999L13.17 12L9.29 15.88C8.9 16.27 8.9 16.9 9.29 17.29C9.68 17.68 10.31 17.68 10.7 17.29L15.29 12.7C15.68 12.31 15.68 11.68 15.29 11.29L10.7 6.69999C10.32 6.31999 9.68 6.31999 9.29 6.70999Z"/>
    </symbol>

    <symbol id="phone-right" viewBox="0 0 16 16" xmlns="http://www.w3.org/2000/svg">
        <path d="M14.4323 10.9109L12.17 10.6526C11.6267 10.5903 11.0923 10.7773 10.7093 11.1603L9.07041 12.7992C6.54978 11.5166 4.4834 9.45909 3.20082 6.92954L4.84858 5.28177C5.23157 4.89878 5.41862 4.36436 5.35627 3.82104L5.09797 1.57652C4.99109 0.676922 4.23401 0 3.32551 0H1.78464C0.778165 0 -0.0590758 0.837245 0.0032719 1.84372C0.475333 9.45018 6.55869 15.5247 14.1562 15.9967C15.1627 16.0591 15.9999 15.2218 15.9999 14.2154V12.6745C16.0088 11.7749 15.3319 11.0178 14.4323 10.9109Z"/>
    </symbol>

    <symbol id="chat" viewBox="0 0 16 16" xmlns="http://www.w3.org/2000/svg">
        <path d="M14.4 3.2H13.6V9.6C13.6 10.04 13.24 10.4 12.8 10.4H3.2V11.2C3.2 12.08 3.92 12.8 4.8 12.8H12.8L16 16V4.8C16 3.92 15.28 3.2 14.4 3.2ZM12 7.2V1.6C12 0.72 11.28 0 10.4 0H1.6C0.72 0 0 0.72 0 1.6V12L3.2 8.8H10.4C11.28 8.8 12 8.08 12 7.2Z"/>
    </symbol>

    <symbol id="share" viewBox="0 0 24 24" xmlns="http://www.w3.org/2000/svg">
        <path d="M18 16.08C17.24 16.08 16.56 16.38 16.04 16.85L8.91 12.7C8.96 12.47 9 12.24 9 12C9 11.76 8.96 11.53 8.91 11.3L15.96 7.19C16.5 7.69 17.21 8 18 8C19.66 8 21 6.66 21 5C21 3.34 19.66 2 18 2C16.34 2 15 3.34 15 5C15 5.24 15.04 5.47 15.09 5.7L8.04 9.81C7.5 9.31 6.79 9 6 9C4.34 9 3 10.34 3 12C3 13.66 4.34 15 6 15C6.79 15 7.5 14.69 8.04 14.19L15.16 18.35C15.11 18.56 15.08 18.78 15.08 19C15.08 20.61 16.39 21.92 18 21.92C19.61 21.92 20.92 20.61 20.92 19C20.92 17.39 19.61 16.08 18 16.08Z"/>
    </symbol>
</svg>
